<?xml version="1.0" encoding="utf-8"?>
<!-- Generator: Adobe Illustrator 24.1.2, SVG Export Plug-In . SVG Version: 6.00 Build 0)  -->
<svg version="1.1" id="Capa_1" xmlns="http://www.w3.org/2000/svg" xmlns:xlink="http://www.w3.org/1999/xlink" x="0px" y="0px"
	 viewBox="0 0 275.2 50.4" style="enable-background:new 0 0 275.2 50.4;" xml:space="preserve">
<style type="text/css">
	.st0{fill:#8B8BF2;}
</style>
<g id="Capa_2_1_">
	<g id="Capa_1-2">
		<path class="st0" d="M69.9,0.2C74.2,0.2,134.4,0,134.4,0v33.8l-46.4,5.8v10.8h-18C69.9,50.4,69.9,3.3,69.9,0.2z M87.9,30.6
			l28.5-3.6V9.4H87.9L87.9,30.6z"/>
		<path class="st0" d="M139.5,0.2L203.2,0v19.1l-45.7,6.5v3.2h27.7v-3.2l18-1.8v14.4h-63.7C139.5,38.2,139.5,3.3,139.5,0.2z
			 M157.5,16.3l27.7-3.7V9.4h-27.8L157.5,16.3z"/>
		<path class="st0" d="M206,38.2l20.2-19.1L206,0h20.5L241,12.2L253.9,0h21.2L255,19.1l20.2,19.1h-20.5l-14.4-12.2l-13,12.2H206z"/>
		<path class="st0" d="M63.7,37.9L0,38.2V19.1l45.7-6.5V9.4H18v3.2L0,14.4V0h63.7C63.7,0,63.7,34.9,63.7,37.9z M45.7,21.9L18,25.6
			v3.2h27.7L45.7,21.9z"/>
	</g>
</g>
</svg>
